<?xml version="1.0" encoding="UTF-8" standalone="no"?>
<!-- Svg Vector Icons : http://www.onlinewebfonts.com/icon -->

<svg
   xmlns:dc="http://purl.org/dc/elements/1.1/"
   xmlns:cc="http://creativecommons.org/ns#"
   xmlns:rdf="http://www.w3.org/1999/02/22-rdf-syntax-ns#"
   xmlns:svg="http://www.w3.org/2000/svg"
   xmlns="http://www.w3.org/2000/svg"
   xmlns:sodipodi="http://sodipodi.sourceforge.net/DTD/sodipodi-0.dtd"
   xmlns:inkscape="http://www.inkscape.org/namespaces/inkscape"
   version="1.1"
   x="0px"
   y="0px"
   viewBox="0 0 1000 1000"
   enable-background="new 0 0 1000 1000"
   xml:space="preserve"
   id="svg2"
   inkscape:version="0.91 r13725"
   sodipodi:docname="16fb1438d7fc55b9de93206dd3da8752.svg"><defs
     id="defs20" /><sodipodi:namedview
     pagecolor="#ffffff"
     bordercolor="#666666"
     borderopacity="1"
     objecttolerance="10"
     gridtolerance="10"
     guidetolerance="10"
     inkscape:pageopacity="0"
     inkscape:pageshadow="2"
     inkscape:window-width="1366"
     inkscape:window-height="744"
     id="namedview18"
     showgrid="false"
     inkscape:zoom="0.236"
     inkscape:cx="500"
     inkscape:cy="500"
     inkscape:window-x="0"
     inkscape:window-y="24"
     inkscape:window-maximized="1"
     inkscape:current-layer="svg2" /><metadata
     id="metadata4"> Svg Vector Icons : http://www.onlinewebfonts.com/icon <rdf:RDF><cc:Work
     rdf:about=""><dc:format>image/svg+xml</dc:format><dc:type
       rdf:resource="http://purl.org/dc/dcmitype/StillImage" /></cc:Work></rdf:RDF></metadata><g
     id="g6"><path
       d="M517.6,670.7c6.1,0.7,55,10.1,57.5-32c2.4-42.1,7.4-149.7,10.8-212.9c4.4-47.6,57.6-40.8,61,0c3.6,43.7,13.3,152.1,13.3,152.1s-1.2,68.6,14.1,68.6c15.2,0,33.5-4.2,45.1-2.1c11.6,2.1,29,11.5,37.5,13.2c8.5,1.7,24.5-12,41.5-5.7c21.7,8.1,47.2-11.1,62.2,16.2c17,30.4-11.7,105.6-11.7,105.6s-36.4,73.5-41.7,89.5c-5.3,16-12.6,46.1-11.8,74.2c0.8,28.1,11.3,53.3-10.4,52.5c-22.4,0-172.2,0-172.2,0s-32.5,0.3-24.1-31.4c10.2-36.3-11.6-54.6-29.3-89.7c-17.7-35.1-45-121.5-59.8-159.1C484.7,672.1,511.5,670,517.6,670.7z"
       id="path8" /><path
       d="M680.6,191.5c0,11.2-9.1,20.3-20.3,20.3l-369.2,0c-11.2,0-20.3-9.1-20.3-20.3v-3.6c0-11.2,9.1-20.3,20.3-20.3h369.2c11.2,0,20.3,9.1,20.3,20.3L680.6,191.5L680.6,191.5z"
       id="path10" /><path
       d="M475,283.6c0,11.2-9.2,20.3-20.3,20.3H291c-11.2,0-20.3-9.1-20.3-20.3V280c0-11.2,9.1-20.3,20.3-20.3h163.7c11.2,0,20.3,9.1,20.3,20.3V283.6z"
       id="path12" /><path
       d="M475,375.7c0,11.2-9.2,20.3-20.3,20.3H291c-11.2,0-20.3-9.1-20.3-20.3v-3.6c0-11.2,9.1-20.3,20.3-20.3h163.7c11.2,0,20.3,9.1,20.3,20.3V375.7z"
       id="path14" /><path
       d="M726.1,10h-501C175,10,134,49.8,134,98.5v707.8c0,48.7,41,88.5,91.1,88.5h271.3c21.6,0-11.5-67.9-26.4-67.9H274c-37.6,0-68.3-29.9-68.3-66.4V144.3c0-36.5,30.7-66.4,68.3-66.4h403.2c37.6,0,68.3,29.9,68.3,66.4v452.9c0,19.6,71.7,28,71.7,10.4V98.5C817.2,49.8,776.2,10,726.1,10z M553,57H398.2c-7.5,0-13.7-5-13.7-11.1c0-6.1,6.2-11.1,13.7-11.1H553c7.5,0,13.7,5,13.7,11.1C566.7,52,560.6,57,553,57z"
       id="path16" /></g><path
     style="fill:#ffffff"
     d="m 598.3424,982.34619 c -8.79708,-6.1617 -9.45277,-9.02538 -7.0519,-30.79861 2.54122,-23.04589 1.72186,-25.78322 -20.5031,-68.49673 -12.73256,-24.47034 -35.14306,-78.42429 -49.80111,-119.89767 -25.10655,-71.0363 -26.23264,-75.82461 -19.4319,-82.62712 4.96019,-4.96148 14.52734,-7.31379 30.57505,-7.5176 18.85947,-0.23953 25.32963,-2.27892 33.60779,-10.59322 10.0021,-10.04575 10.40698,-13.17448 16.61963,-128.42791 6.97529,-129.40155 8.98017,-138.22462 31.40898,-138.22462 6.90346,0 15.69806,4.06886 21.00534,9.7182 8.07391,8.59429 9.8765,18.76275 15.58648,87.92373 10.06495,121.9098 13.48844,148.869 19.36581,152.50142 2.97023,1.83571 15.11094,2.33543 26.97935,1.1105 14.24849,-1.47057 26.79229,-0.0489 36.92568,4.18514 11.82079,4.93904 25.64712,5.88658 60.17904,4.12416 37.05219,-1.89104 46.66604,-1.0866 55.3991,4.63552 24.40706,15.99212 16.72831,71.4904 -21.00705,151.82888 -27.11279,57.72305 -36.55303,96.29241 -34.88361,142.52148 l 1.17555,32.55267 -93.22512,1.13758 c -79.92297,0.97526 -94.60904,0.16822 -102.92401,-5.6558 z"
     id="path3348"
     inkscape:connector-curvature="0" /><path
     style="fill:#ffffff"
     d="m 188.55932,884.4964 c -19.71451,-10.37487 -36.33511,-27.36699 -44.93278,-45.93708 -7.44482,-16.08004 -7.85197,-35.76538 -7.94026,-383.90161 -0.0675,-266.15588 1.24889,-370.908858 4.79233,-381.355918 7.62846,-22.490809 19.40485,-36.684017 40.94235,-49.344767 l 19.85023,-11.668889 273.30508,0 c 271.69276,0 273.40509,0.05381 290.25424,9.121533 19.5478,10.520038 32.16004,23.342395 41.87724,42.574823 6.0945,12.062372 6.85157,43.048898 6.85157,280.434798 0,266.85846 -5.1e-4,266.87418 -8.84296,269.68067 -11.34284,3.60008 -37.15136,-1.10136 -49.41975,-9.00263 l -9.5339,-6.14017 0,-237.74961 c 0,-232.30231 -0.19915,-238.07173 -8.68818,-251.80738 -4.77847,-7.73176 -15.01415,-17.967416 -22.74589,-22.745903 -13.70987,-8.473161 -19.61356,-8.688165 -238.56657,-8.688165 l -224.50882,0 L 237.24505,87.5 c -7.70452,5.243644 -17.99709,14.91737 -22.87239,21.49716 -8.81662,11.89907 -8.86419,13.74251 -8.86419,343.55017 l 0,331.58691 12.21111,16.00962 c 20.21363,26.50144 27.26868,27.82224 148.60963,27.82224 l 108.12682,0 10.82336,16.35521 c 5.95284,8.99534 11.94972,23.29619 13.3264,31.77966 l 2.50304,15.42445 -149.91882,-0.16949 C 223.02291,891.21072 199.42682,890.21551 188.55932,884.4964 Z M 559.60059,56.630576 c 4.5078,-2.412504 8.19602,-7.112364 8.19602,-10.444135 0,-12.196627 -16.73877,-14.830509 -94.25055,-14.830509 -56.457,0 -79.89163,1.486644 -85.25494,5.408396 -8.55884,6.258376 -5.63922,18.562816 5.07813,21.401231 15.17898,4.020047 158.32143,2.698267 166.23134,-1.534983 z"
     id="path3350"
     inkscape:connector-curvature="0" /><path
     style="fill:#ffffff"
     d="m 277.84504,202.66344 c -7.80818,-7.80818 -8.23154,-12.14591 -2.27223,-23.28099 4.23859,-7.91986 10.92002,-8.19601 198.30509,-8.19601 204.10957,0 204.0882,-0.002 204.0882,19.0678 0,19.05769 -0.10697,19.06779 -201.81598,19.06779 -168.57436,0 -192.44811,-0.80162 -198.30508,-6.65859 z"
     id="path3352"
     inkscape:connector-curvature="0" /><path
     style="fill:#ffffff"
     d="m 278.1991,294.79347 c -9.16565,-10.12793 -8.84624,-15.84125 1.46192,-26.1494 7.9096,-7.90961 14.12429,-8.47458 93.22034,-8.47458 79.09604,0 85.31073,0.56497 93.22033,8.47458 10.20132,10.20131 10.36707,12.36159 1.87838,24.4809 -6.45663,9.21813 -8.4601,9.4174 -94.68226,9.4174 -79.95501,0 -88.73337,-0.71528 -95.09871,-7.7489 z"
     id="path3354"
     inkscape:connector-curvature="0" /><path
     style="fill:#ffffff"
     d="m 279.66102,387.28814 c -10.52111,-10.52111 -10.71871,-17.84208 -0.72568,-26.88565 6.68041,-6.04568 19.73615,-7.01266 94.68226,-7.01266 78.8383,0 87.58636,0.72156 93.94601,7.7489 9.16565,10.12793 8.84624,15.84125 -1.46192,26.14941 -7.9096,7.9096 -14.12429,8.47457 -93.22033,8.47457 -79.09605,0 -85.31074,-0.56497 -93.22034,-8.47457 z"
     id="path3356"
     inkscape:connector-curvature="0" /></svg>